<?xml version="1.0" encoding="utf-8"?>
<!-- Generator: Adobe Illustrator 21.0.2, SVG Export Plug-In . SVG Version: 6.00 Build 0)  -->
<svg version="1.1" id="Layer_1" xmlns="http://www.w3.org/2000/svg" xmlns:xlink="http://www.w3.org/1999/xlink" x="0px" y="0px"
	 viewBox="0 0 452 452" style="enable-background:new 0 0 452 452;" xml:space="preserve">
<style type="text/css">
	.st0{fill:none;stroke:#F9F9F9;stroke-width:20;stroke-miterlimit:10;}
</style>
<path class="st0" d="M376.7,162.5c0,1.9,11.1,3.6,26.4,4.1c6.3,0.2,10.1,7.2,6.8,12.6c-6.4,10.6-34.3,7.8-36.3,23l0,0
	c-14.5,105.2-102.4,189.4-322.9,109c-2.3-0.8-2.3-4.7,0.2-4.8c29.6-1.8,82.9-20.5,95.4-34.5c0.1-0.1,0.2-0.2,0-0.3
	c-29.3-6.8-120-102.4-104.5-134.2c1-2.1,3.7-3.2,6-2.4c51.4,18.3,149.7,48.9,211.4,48.9c0.1,0,0.1,0,0.1-0.1
	c5.7-3.9,6.8-10.4,6.8-20.4l0,0c0-29.2,22.6-53.1,51.2-55.2C349.9,105.7,376.6,129.7,376.7,162.5"/>
<circle class="st0" cx="226" cy="226" r="216"/>
</svg>
