<?xml version="1.0" encoding="utf-8"?>
<!-- Generator: Adobe Illustrator 21.0.2, SVG Export Plug-In . SVG Version: 6.00 Build 0)  -->
<svg version="1.1" id="Layer_1" xmlns="http://www.w3.org/2000/svg" xmlns:xlink="http://www.w3.org/1999/xlink" x="0px" y="0px"
	 viewBox="0 0 452 452" style="enable-background:new 0 0 452 452;" xml:space="preserve">
<style type="text/css">
	.st0{fill:none;stroke:#F9F9F9;stroke-width:20;}
	.st1{fill:none;stroke:#F9F9F9;stroke-width:20;stroke-miterlimit:10;}
</style>
<g>
	<path class="st0" d="M176.1,428.5v-231l-24.5-3.9c-5.3-0.9-9.6-2.8-12.8-5.5c-3.2-2.8-4.8-6.6-4.8-11.5v-27.8h42.1v-20.9
		c0-16.1,2.4-30.6,7.3-43.4s11.8-23.7,20.9-32.7c9.1-9,20.1-15.9,33.1-20.6c13-4.8,27.7-7.1,44-7.1c13,0,25.1,1.7,36.3,5.2
		l-1.4,34.1c-0.4,5.3-2.8,8.6-7.4,9.9c-4.6,1.3-9.9,1.9-15.9,1.9c-8.1,0-15.3,0.9-21.6,2.6c-6.3,1.7-11.7,4.8-16.1,9.1
		c-4.4,4.3-7.7,10-10,17c-2.3,7.1-3.4,15.8-3.4,26.3v18.7h73.4v48.4H244v231.3L176.1,428.5L176.1,428.5z"/>
</g>
<circle class="st1" cx="226" cy="226" r="216"/>
</svg>
