<?xml version="1.0" encoding="utf-8"?>
<!-- Generator: Adobe Illustrator 21.0.2, SVG Export Plug-In . SVG Version: 6.00 Build 0)  -->
<svg version="1.1" id="Layer_1" xmlns="http://www.w3.org/2000/svg" xmlns:xlink="http://www.w3.org/1999/xlink" x="0px" y="0px"
	 viewBox="0 0 452 452" style="enable-background:new 0 0 452 452;" xml:space="preserve">
<style type="text/css">
	.st0{fill:none;stroke:#F9F9F9;stroke-width:20;stroke-miterlimit:10;}
</style>
<g>
	<path class="st0" d="M246.3,412.9c-24.4,0-43.2-6.9-56.4-20.8c-13.2-13.8-19.8-33-19.8-57.3V177.2h-28.6c-3.7,0-6.8-1.2-9.5-3.6
		c-2.7-2.4-4-6-4-10.7V136l45.4-7.4l14.3-77c0.7-3.7,2.4-6.5,5.1-8.5s6-3,10-3H238v88.8h74.3v48.4H238v152.9
		c0,8.8,2.2,15.7,6.6,20.6c4.4,4.9,10.3,7.4,17.6,7.4c4.2,0,7.7-0.5,10.6-1.5c2.8-1,5.3-2.1,7.4-3.2c2.1-1.1,4-2.2,5.6-3.2
		c1.7-1,3.3-1.5,5-1.5c2,0,3.7,0.5,4.9,1.5c1.3,1,2.7,2.5,4.1,4.5l20.3,33c-9.9,8.3-21.3,14.5-34.1,18.7
		C273.3,410.8,260,412.9,246.3,412.9z"/>
</g>
<circle class="st0" cx="226" cy="226" r="216"/>
</svg>
