<?xml version="1.0" encoding="utf-8"?>
<!-- Generator: Adobe Illustrator 21.0.2, SVG Export Plug-In . SVG Version: 6.00 Build 0)  -->
<svg version="1.1" id="Layer_1" xmlns="http://www.w3.org/2000/svg" xmlns:xlink="http://www.w3.org/1999/xlink" x="0px" y="0px"
	 viewBox="0 0 452 452" style="enable-background:new 0 0 452 452;" xml:space="preserve">
<style type="text/css">
	.st0{fill:none;stroke:#F9F9F9;stroke-width:20;stroke-miterlimit:10;}
</style>
<circle class="st0" cx="226" cy="226" r="216"/>
<g>
	<g>
		<g>
			<path class="st0" d="M168.1,223.4"/>
		</g>
		<g>
			<path class="st0" d="M283.8,209c-1.7-41.5-13.4-83.3-36.4-118.2c-6.3-9.6-13.5-18.6-21.4-26.8c-14.9,14.5-26.8,31.7-35.9,50.3
				C176,145,169,178,168,211.7"/>
		</g>
		<g>
			<path class="st0" d="M226,370"/>
		</g>
	</g>
	<g>
		<path class="st0" d="M388.6,259.7c19.2-34.8,29-74.6,25.6-114.7c-109,9.4-197.5,116.1-188.1,225.2"/>
	</g>
	<g>
		<path class="st0" d="M226,370.2c9.4-109-79.1-215.7-188.1-225.2c-3.5,40.2,6.4,80,25.6,114.8c0.4-0.1,0.8-0.1,1.2-0.1"/>
	</g>
	<g>
		<path class="st0" d="M226,370.1c84.8,31.2,178.7-12.1,209.9-96.9C351.1,242,257.2,285.3,226,370.1z"/>
	</g>
	<g>
		<path class="st0" d="M226,370.1C141.2,401.3,47.3,358,16.1,273.2C100.9,242,194.8,285.3,226,370.1z"/>
	</g>
</g>
</svg>
