<?xml version="1.0" encoding="utf-8"?>
<!-- Generator: Adobe Illustrator 21.0.2, SVG Export Plug-In . SVG Version: 6.00 Build 0)  -->
<svg version="1.1" id="Layer_1" xmlns="http://www.w3.org/2000/svg" xmlns:xlink="http://www.w3.org/1999/xlink" x="0px" y="0px"
	 viewBox="0 0 452 452" style="enable-background:new 0 0 452 452;" xml:space="preserve">
<style type="text/css">
	.st0{fill:#F9F9F9;}
	.st1{font-family:'Lato-Bold';}
	.st2{font-size:177.7407px;}
	.st3{fill:#F9F9F9;stroke:#F9F9F9;stroke-miterlimit:10;}
	.st4{fill:none;stroke:#F9F9F9;stroke-width:20;stroke-miterlimit:10;}
</style>
<text transform="matrix(0.9736 0 0 1 87.2623 173.5327)" class="st0 st1 st2">you</text>
<path class="st3" d="M399.8,351.5H57c-6.6,0-12-5.4-12-12V214.6c0-6.6,5.4-12,12-12h342.8c6.6,0,12,5.4,12,12v124.9
	C411.8,346.1,406.4,351.5,399.8,351.5z M103.3,337c4-1.4,7.6-3.4,10.7-6l-6.4-10.7c-0.5-0.7-0.9-1.1-1.3-1.5
	c-0.4-0.3-0.9-0.5-1.6-0.5c-0.5,0-1,0.2-1.6,0.5c-0.5,0.3-1.1,0.7-1.8,1c-0.7,0.4-1.4,0.7-2.3,1s-2,0.5-3.3,0.5
	c-2.3,0-4.2-0.8-5.5-2.4c-1.4-1.6-2.1-3.8-2.1-6.7v-49.4h23.4v-15.6H88.2v-28.7H77.1c-1.3,0-2.3,0.3-3.2,1c-0.8,0.7-1.4,1.6-1.6,2.8
	l-4.5,24.9l-14.3,2.4v8.7c0,1.5,0.4,2.7,1.3,3.5c0.8,0.8,1.8,1.2,3,1.2h9v50.9c0,7.9,2.1,14.1,6.2,18.5c4.2,4.5,10.1,6.7,17.7,6.7
	C95.1,339,99.3,338.3,103.3,337z M126.8,246.4v57.9c0,5.1,0.6,9.8,1.9,14c1.3,4.2,3.2,7.9,5.8,11c2.5,3.1,5.7,5.5,9.4,7.2
	s8,2.5,12.8,2.5c2.9,0,5.7-0.3,8.3-0.9s5-1.5,7.2-2.6s4.3-2.4,6.3-4s3.9-3.3,5.7-5.2l1.5,7.3c0.9,2.7,2.7,4,5.5,4h13.1v-91.2h-21.4
	v65.9c-2.9,3-5.9,5.3-9.2,7c-3.2,1.7-6.7,2.5-10.4,2.5c-5,0-8.8-1.5-11.3-4.6s-3.8-7.4-3.8-12.9v-57.9H126.8z M241.3,337.6
	c1.4,0,2.6-0.3,3.4-1c0.8-0.7,1.4-1.7,1.8-3.3l1-6.1c1.4,1.8,3,3.4,4.5,4.8c1.6,1.5,3.3,2.7,5.1,3.7c1.8,1,3.9,1.8,6.1,2.4
	s4.7,0.8,7.4,0.8c5.8,0,11.1-1.2,15.8-3.6c4.7-2.4,8.7-5.7,12-10s5.9-9.3,7.7-15.1s2.7-12.1,2.7-18.9c0-7.5-0.8-14.1-2.4-19.8
	c-1.6-5.7-3.8-10.6-6.7-14.5c-2.9-3.9-6.4-6.9-10.4-8.9s-8.4-3.1-13.3-3.1c-5.9,0-11.1,1.1-15.6,3.4c-4.4,2.3-8.4,5.3-11.9,9.2
	v-52.1h-21.4v132.1H241.3z M276.3,263.6c2.2,1.1,4.1,2.8,5.7,5.1c1.6,2.3,2.8,5.3,3.6,9c0.8,3.7,1.3,8.2,1.3,13.6
	c0,5.3-0.5,9.9-1.5,13.7c-1,3.9-2.4,7.1-4.2,9.6c-1.8,2.5-4,4.4-6.6,5.7s-5.5,1.9-8.7,1.9c-3.3,0-6.4-0.6-9.3-1.8
	c-2.9-1.2-5.5-3.4-7.9-6.4v-40.9c2.7-3.5,5.6-6.2,8.8-8.1c3.1-1.9,6.9-2.9,11.4-2.9C271.6,262,274.1,262.6,276.3,263.6z
	 M344.4,248.5c-5.3,2.4-9.8,5.6-13.4,9.6c-3.7,4.1-6.5,8.8-8.4,14.3c-2,5.5-2.9,11.3-2.9,17.6c0,8,1.1,15,3.4,21.1
	c2.2,6.1,5.3,11.2,9.3,15.3c3.9,4.1,8.5,7.2,13.8,9.3c5.3,2.1,11,3.2,17.2,3.2c3.1,0,6.3-0.2,9.6-0.7c3.3-0.5,6.6-1.3,9.8-2.4
	c3.2-1.2,6.3-2.7,9.2-4.6c2.9-1.9,5.6-4.3,8-7.2l-6.2-8c-0.5-0.7-1-1.2-1.6-1.5c-0.6-0.4-1.4-0.5-2.2-0.5c-1.3,0-2.7,0.4-4.1,1.2
	c-1.4,0.8-3.1,1.7-4.9,2.8c-1.9,1-4.1,1.9-6.6,2.8c-2.5,0.8-5.5,1.2-9,1.2c-7,0-12.7-2.2-17-6.6s-6.7-11.3-7.4-20.6h54.9
	c1,0,1.8-0.1,2.4-0.4s1.1-0.7,1.5-1.3c0.4-0.6,0.6-1.5,0.8-2.6c0.1-1.1,0.2-2.5,0.2-4.1c0-6.6-1-12.4-2.9-17.6
	c-1.9-5.1-4.6-9.4-8-13c-3.4-3.5-7.5-6.2-12.2-8s-9.9-2.8-15.4-2.8C355.6,245,349.7,246.2,344.4,248.5z M371,262.4
	c2.4,1.1,4.3,2.6,5.9,4.5s2.7,4.1,3.5,6.6c0.7,2.5,1.1,5.2,1.1,8h-40.1c1-6.6,3.2-11.8,6.7-15.4s8.4-5.4,14.6-5.4
	C365.9,260.7,368.7,261.3,371,262.4z"/>
<circle class="st4" cx="226" cy="226" r="216"/>
</svg>
