<?xml version="1.0" encoding="utf-8"?>
<!-- Generator: Adobe Illustrator 21.0.2, SVG Export Plug-In . SVG Version: 6.00 Build 0)  -->
<svg version="1.1" id="Layer_1" xmlns="http://www.w3.org/2000/svg" xmlns:xlink="http://www.w3.org/1999/xlink" x="0px" y="0px"
	 viewBox="0 0 452 452" style="enable-background:new 0 0 452 452;" xml:space="preserve">
<style type="text/css">
	.st0{fill:none;stroke:#F9F9F9;stroke-width:20;}
	.st1{fill:none;stroke:#F9F9F9;stroke-width:20;stroke-miterlimit:10;}
</style>
<path class="st0" d="M374.3,370.7H77.7c-6.6,0-12-5.4-12-12V93.3c0-6.6,5.4-12,12-12h296.6c6.6,0,12,5.4,12,12v265.5
	C386.3,365.3,380.9,370.7,374.3,370.7z"/>
<circle class="st0" cx="226" cy="226" r="77.8"/>
<path class="st0" d="M266,159c40,0,80,0,120.3,0"/>
<path class="st0" d="M65.7,159c40.3,0,80.3,0,120.3,0"/>
<path class="st0" d="M91.2,81.8"/>
<line class="st0" x1="127" y1="77.3" x2="127" y2="127"/>
<line class="st0" x1="100" y1="77.9" x2="100" y2="127"/>
<line class="st0" x1="153.8" y1="76.8" x2="154" y2="127"/>
<circle class="st1" cx="226" cy="226" r="216"/>
</svg>
